<?xml version="1.0" standalone="no"?>
<!DOCTYPE svg PUBLIC "-//W3C//DTD SVG 20010904//EN"
 "http://www.w3.org/TR/2001/REC-SVG-20010904/DTD/svg10.dtd">
<svg version="1.0" xmlns="http://www.w3.org/2000/svg"
 width="1280.000000pt" height="640.000000pt" viewBox="0 0 1280.000000 640.000000"
 preserveAspectRatio="xMidYMid meet">
<metadata>
Created by potrace 1.15, written by Peter Selinger 2001-2017
</metadata>
<g transform="translate(0.000000,640.000000) scale(0.100000,-0.100000)"
fill="#000000" stroke="none">
<path d="M2146 5321 c-39 -6 -54 -14 -77 -42 -52 -61 -164 -233 -184 -281
l-20 -48 -560 0 c-553 0 -1172 -14 -1184 -26 -3 -3 -8 -60 -9 -127 -3 -95 -7
-124 -19 -133 -12 -8 -13 -13 -5 -18 16 -9 17 -896 2 -896 -14 0 -13 -37 1
-46 17 -10 4 -192 -15 -213 -22 -26 -53 -120 -66 -204 -23 -143 4 -303 68
-404 27 -42 32 -62 40 -158 5 -60 8 -113 5 -117 -2 -5 -27 -8 -54 -8 l-50 0 3
-42 3 -43 58 3 c36 3 57 0 57 -7 0 -6 0 -14 0 -18 0 -5 -26 -10 -57 -13 l-58
-5 -3 -43 -3 -42 70 6 c57 6 71 4 71 -7 0 -8 5 -30 10 -50 l10 -37 88 -6 c48
-4 377 -27 732 -51 355 -24 673 -47 708 -51 l62 -6 0 -135 0 -136 105 7 104 7
27 -58 c38 -81 132 -172 209 -202 115 -46 349 -37 500 20 35 13 77 41 114 75
32 30 61 54 64 54 3 0 17 -20 31 -44 49 -84 194 -179 299 -196 96 -15 196 -12
283 10 107 28 154 52 222 116 31 31 63 60 70 66 7 6 67 14 133 18 173 11 262
44 345 125 34 33 67 70 73 83 21 39 44 25 90 -54 48 -84 111 -141 201 -183 47
-22 73 -26 170 -29 238 -9 388 47 476 174 l38 55 55 -6 c31 -3 180 -12 331
-20 151 -9 329 -20 395 -26 66 -5 172 -12 235 -15 189 -8 550 -32 1165 -79
854 -65 1199 -83 1725 -92 195 -3 404 -3 463 2 102 7 109 8 117 31 11 28 29
30 72 8 30 -16 33 -16 49 5 9 11 20 21 23 21 3 0 6 -31 6 -69 0 -128 53 -282
142 -414 66 -97 230 -201 353 -223 82 -15 227 -18 241 -5 5 5 41 19 79 30 39
12 90 35 115 51 25 17 57 38 72 48 16 9 28 23 28 29 0 7 11 20 24 29 29 18 63
71 87 134 9 25 22 58 28 74 l12 29 25 -36 c34 -51 140 -136 211 -170 32 -15
72 -35 88 -44 38 -20 278 -32 289 -14 4 6 17 11 28 11 36 0 196 88 242 132 82
81 152 210 181 331 16 69 19 207 5 277 -5 25 -5 49 0 54 5 4 32 8 62 8 46 0
114 8 185 23 17 4 31 -7 67 -54 65 -84 125 -102 176 -51 34 34 20 112 -25 150
-15 13 -10 17 46 35 61 21 64 23 71 61 9 51 10 134 1 134 -3 0 -55 -16 -114
-35 -154 -50 -235 -47 -261 8 -20 41 -97 143 -159 212 -45 48 -49 57 -49 103
0 49 1 51 33 57 49 11 93 42 107 75 18 43 9 144 -16 177 -46 61 -110 87 -174
70 -66 -17 -120 -88 -120 -158 0 -36 41 -113 65 -123 8 -3 15 -15 15 -26 0
-11 7 -20 15 -20 9 0 18 -7 21 -15 13 -33 -9 -32 -70 3 l-65 37 -3 346 c-2
282 -6 349 -17 363 -26 31 -87 55 -157 61 -126 11 -134 13 -134 40 0 15 -7 26
-19 30 -17 5 -18 10 -10 35 13 35 8 82 -8 87 -6 2 -19 -7 -28 -21 -13 -19 -14
-32 -6 -60 9 -34 8 -36 -15 -36 -19 0 -28 -8 -35 -30 -13 -36 1 -35 -334 -20
-430 18 -455 21 -455 40 0 10 -7 20 -15 24 -8 3 -15 14 -15 25 0 19 -18 122
-134 750 -41 219 -44 247 -31 262 14 14 14 18 0 29 -10 9 -12 17 -5 30 7 12 6
21 -3 28 -25 20 -489 164 -702 219 l-140 36 -2177 -7 -2177 -7 -52 103 c-108
211 -186 252 -514 277 -155 12 -2605 13 -2689 2z m1074 -193 c0 -46 -3 -107
-7 -137 l-6 -54 -111 7 c-61 4 -132 12 -158 17 l-48 11 0 119 0 119 165 0 165
0 0 -82z m665 -20 c4 -57 5 -119 3 -138 l-3 -35 -195 3 c-107 1 -246 5 -307 8
l-113 6 0 129 0 129 304 0 304 0 7 -102z m83 -35 c-3 -130 -4 -138 -23 -138
-19 0 -20 8 -23 138 l-3 137 26 0 26 0 -3 -137z m370 120 c4 -10 7 -72 7 -138
l0 -120 -167 -3 -168 -2 0 140 0 140 160 0 c144 0 161 -2 168 -17z m127 -83
c23 -36 54 -88 68 -117 31 -61 29 -63 -69 -63 -43 0 -66 4 -69 13 -2 6 -6 70
-10 142 l-7 130 23 -20 c12 -11 41 -49 64 -85z m-1615 -20 c0 -92 -2 -110 -15
-110 -9 0 -18 -7 -21 -15 -4 -11 -21 -15 -56 -15 -50 0 -50 0 -43 28 3 15 25
59 48 97 23 39 48 82 56 98 7 15 17 27 22 27 5 0 9 -49 9 -110z m-2040 -904
c0 -212 -3 -387 -7 -389 -5 -3 -102 -7 -218 -9 l-210 -3 2 369 c1 203 4 379 7
392 l6 24 210 0 210 0 0 -384z m1541 19 c-1 -198 -6 -363 -10 -368 -4 -4 -81
-14 -172 -22 -90 -8 -181 -18 -201 -21 l-38 -7 0 386 0 387 168 3 c92 2 187 3
211 2 l45 0 -3 -360z m153 348 c3 -10 8 -171 12 -359 l7 -341 -24 -6 c-13 -4
-41 -7 -61 -7 l-38 0 0 123 c0 68 3 232 7 365 l6 242 43 0 c32 0 44 -4 48 -17z
m661 8 c3 -5 8 -188 12 -405 5 -346 4 -396 -9 -401 -8 -3 -127 -2 -264 2
l-249 8 -5 40 c-5 38 -7 40 -41 43 l-36 3 -8 332 c-4 183 -4 344 0 360 l7 27
293 0 c172 0 296 -4 300 -9z m835 -18 c11 -10 35 -791 25 -801 -7 -8 -322 -5
-564 5 l-154 6 5 392 c3 215 9 398 13 405 6 10 72 12 338 7 181 -3 333 -9 337
-14z m-750 -388 c0 -257 -4 -395 -10 -395 -6 0 -10 138 -10 395 0 257 4 395
10 395 6 0 10 -138 10 -395z m910 370 c0 -16 6 -25 15 -25 13 0 15 -41 15
-308 0 -170 -3 -343 -6 -385 l-7 -77 -42 0 -42 0 -6 203 c-4 111 -7 295 -7
410 l0 207 40 0 c36 0 40 -2 40 -25z m688 14 l50 -12 7 -171 c13 -326 21 -631
17 -639 -4 -8 -337 -3 -567 9 l-110 6 7 386 c6 332 9 387 23 394 8 5 15 16 15
23 0 13 39 15 254 15 156 0 274 -4 304 -11z m323 -384 c-1 -214 -4 -403 -7
-420 l-5 -30 -83 3 -83 3 -6 59 c-10 88 -21 745 -14 764 6 14 21 16 103 14
l97 -3 -2 -390z m630 368 c13 -13 27 -205 35 -470 7 -222 6 -236 -10 -230 -10
4 -25 3 -34 -2 -9 -5 -82 -19 -162 -30 -231 -35 -349 -59 -366 -76 -8 -8 -20
-15 -25 -15 -10 0 -13 681 -2 780 l6 63 275 -6 c151 -3 278 -9 283 -14z m401
-33 c3 -25 2 -205 -3 -400 -5 -195 -9 -365 -9 -377 0 -23 -2 -23 -124 -23
-137 0 -136 -1 -136 74 0 16 -6 37 -14 45 -11 13 -16 90 -22 368 l-9 352 50 4
c28 2 97 3 155 3 l105 -1 7 -45z m573 38 c9 -9 35 -742 27 -749 -10 -10 -490
-99 -530 -99 -14 0 -15 47 -9 421 4 231 10 425 13 431 7 11 488 7 499 -4z
m363 5 l142 -6 0 -147 c0 -81 -3 -276 -7 -433 l-6 -287 -136 0 c-75 0 -141 4
-147 8 -6 4 -14 24 -17 46 -8 48 -32 76 -67 76 l-27 0 -6 103 c-4 56 -10 222
-13 369 l-7 266 29 5 c49 7 113 7 262 0z m3341 -12 c23 -14 57 -223 82 -493
20 -222 25 -252 41 -256 23 -6 23 -22 0 -22 -10 0 -23 -5 -30 -12 -9 -9 -17
-9 -34 0 -13 6 -54 13 -91 14 l-69 3 1 170 c2 227 19 549 31 580 10 26 41 33
69 16z m-1625 -72 c3 -34 6 -221 6 -415 l0 -354 -22 -4 c-82 -17 -381 -46
-470 -46 l-108 0 -1 38 c-2 158 2 602 8 710 l6 132 287 0 287 0 7 -61z m131
-311 c4 -200 5 -385 3 -413 -3 -48 -4 -50 -33 -50 l-30 0 -3 413 -2 412 29 0
29 0 7 -362z m1187 352 l97 1 3 -263 c2 -145 2 -311 0 -370 l-3 -108 -54 0
c-42 0 -55 4 -59 18 -9 29 -64 337 -91 507 -14 88 -28 175 -31 194 -5 32 -4
33 18 27 13 -4 67 -7 120 -6z m-965 -18 c3 -14 11 -18 28 -15 26 6 25 10 110
-382 25 -115 53 -241 61 -278 9 -37 13 -71 9 -75 -7 -8 -334 -40 -341 -33 -2
2 -4 184 -4 403 l0 398 66 0 c56 0 67 -3 71 -18z m722 -14 c5 -13 19 -66 30
-118 12 -52 26 -111 31 -130 23 -92 90 -463 85 -468 -3 -4 -53 -8 -110 -10
l-104 -4 -3 363 c-2 200 -1 370 1 377 2 6 16 12 32 12 21 0 32 -6 38 -22z
m-8674 -105 c-3 -38 -7 -173 -9 -302 -4 -175 -9 -237 -18 -243 -7 -4 -48 -8
-90 -8 l-78 0 0 268 c0 147 3 284 6 304 l6 37 57 4 c31 2 73 4 93 5 l37 2 -4
-67z m200 -17 c4 -41 4 -79 1 -85 -4 -5 -7 -102 -7 -215 l0 -206 -43 0 -43 0
-7 53 c-8 70 -8 512 1 520 3 4 25 7 49 7 l42 0 7 -74z m6340 -34 c3 -9 3 -137
-1 -283 l-7 -266 -120 -27 c-66 -15 -121 -25 -123 -23 -5 5 15 598 21 607 3 5
54 9 114 9 94 0 110 -2 116 -17z m335 -328 c0 -259 -3 -336 -12 -339 -7 -2
-29 -1 -48 3 -34 8 -35 10 -42 62 -8 69 -33 93 -87 84 l-36 -6 6 254 c4 139 7
258 8 265 1 12 139 22 189 14 l22 -3 0 -334z m4504 -1894 c41 -45 42 -52 20
-74 -25 -26 -41 -19 -84 37 -46 61 -46 64 -22 70 38 10 51 5 86 -33z"/>
</g>
</svg>
